# xmcd
#
# Track frame offsets:
#	150
#	24294
#	39018
#	57702
#	87960
#	108749
#	129739
#	145473
#	167723
#	191593
#	206803
#	220570
#
# Disc length: 3228 seconds
#
# Revision: 0
# Processed by: cddbd v1.5.2PL0 Copyright (c) Steve Scherf et al.
# Submitted via: EZCDAudioConverter 1.0.6.1
#
DISCID=ae0c9a0c
DTITLE=David Jacobs-Strain - Live from the Left Coast
DYEAR=2011
DGENRE=Blues
TTITLE0=Rainbow Junkies
TTITLE1=Pescadero Beach
TTITLE2=Come on In My Kitchen
TTITLE3=Treetop Flyer
TTITLE4=Hurricane Railroad
TTITLE5=Big Legged Mamas
TTITLE6=Lookin' For A Home
TTITLE7=Halfway To The Coast
TTITLE8=Ocean Or A Teardrop
TTITLE9=Dirt And Wildflowers
TTITLE10=Neon Star
TTITLE11=Play It Again
EXTD=
EXTT0=
EXTT1=
EXTT2=
EXTT3=
EXTT4=
EXTT5=
EXTT6=
EXTT7=
EXTT8=
EXTT9=
EXTT10=
EXTT11=
PLAYORDER=
